{"Protocol":0,"Id":"f1262d60293db979ba6ceb581c3aaa58","Path":"/data/shows/Breaking Bad {tvdb-81189} {imdb-tt0903747}/Season1/S01E02.mkv","EncoderPath":null,"EncoderProtocol":null,"Type":0,"Container":"mkv","Size":16850,"Name":"S01E02","IsRemote":false,"ETag":"78150f39283062dcda80c35f4a0b16e5","RunTimeTicks":6020000000,"ReadAtNativeFramerate":false,"IgnoreDts":false,"IgnoreIndex":false,"GenPtsInput":false,"SupportsTranscoding":true,"SupportsDirectStream":true,"SupportsDirectPlay":true,"IsInfiniteStream":false,"UseMostCompatibleTranscodingProfile":false,"RequiresOpening":false,"OpenToken":null,"RequiresClosing":false,"LiveStreamId":null,"BufferMs":null,"RequiresLooping":false,"SupportsProbing":true,"VideoType":0,"IsoType":null,"Video3DFormat":null,"MediaStreams":[{"Codec":"h264","CodecTag":null,"Language":null,"ColorRange":null,"ColorSpace":null,"ColorTransfer":null,"ColorPrimaries":null,"DvVersionMajor":null,"DvVersionMinor":null,"DvProfile":null,"DvLevel":null,"RpuPresentFlag":null,"ElPresentFlag":null,"BlPresentFlag":null,"DvBlSignalCompatibilityId":null,"Rotation":null,"Comment":null,"TimeBase":"1/1000","CodecTimeBase":null,"Title":null,"Hdr10PlusPresentFlag":null,"VideoRange":1,"VideoRangeType":1,"VideoDoViTitle":null,"AudioSpatialFormat":0,"LocalizedUndefined":null,"LocalizedDefault":null,"LocalizedForced":null,"LocalizedExternal":null,"LocalizedHearingImpaired":null,"DisplayTitle":"144p H264 SDR","NalLengthSize":"4","IsInterlaced":false,"IsAVC":true,"ChannelLayout":null,"BitRate":223,"BitDepth":8,"RefFrames":1,"PacketLength":null,"Channels":null,"SampleRate":null,"IsDefault":false,"IsForced":false,"IsHearingImpaired":false,"Height":96,"Width":128,"AverageFrameRate":1,"RealFrameRate":1,"ReferenceFrameRate":1,"Profile":"High","Type":1,"AspectRatio":"4:3","Index":0,"Score":null,"IsExternal":false,"DeliveryMethod":null,"DeliveryUrl":null,"IsExternalUrl":null,"IsTextSubtitleStream":false,"SupportsExternalStream":false,"Path":null,"PixelFormat":"yuv420p","Level":10,"IsAnamorphic":false}],"MediaAttachments":[],"Formats":[],"Bitrate":223,"FallbackMaxStreamingBitrate":null,"Timestamp":null,"RequiredHttpHeaders":{},"TranscodingUrl":null,"TranscodingSubProtocol":0,"TranscodingContainer":null,"AnalyzeDurationMs":null,"DefaultAudioStreamIndex":null,"DefaultSubtitleStreamIndex":null,"HasSegments":false}

/usr/lib/jellyfin-ffmpeg/ffmpeg -analyzeduration 200M -probesize 1G -fflags +genpts  -i file:"/data/shows/Breaking Bad {tvdb-81189} {imdb-tt0903747}/Season1/S01E02.mkv" -map_metadata -1 -map_chapters -1 -threads 0 -map 0:0 -map -0:a -map -0:s -codec:v:0 copy -bsf:v h264_mp4toannexb -start_at_zero  -copyts -avoid_negative_ts disabled -max_muxing_queue_size 2048 -f hls -max_delay 5000000 -hls_time 6 -hls_segment_type fmp4 -hls_fmp4_init_filename "fde0cd066305eb826029ef559f788fc9-1.mp4" -start_number 0 -hls_segment_filename "/config/cache/transcodes/fde0cd066305eb826029ef559f788fc9%d.mp4" -hls_playlist_type vod -hls_list_size 0 -hls_segment_options movflags=+frag_discont -y "/config/cache/transcodes/fde0cd066305eb826029ef559f788fc9.m3u8"


ffmpeg version 7.1.3-Jellyfin Copyright (c) 2000-2025 the FFmpeg developers
  built with gcc 13 (Ubuntu 13.3.0-6ubuntu2~24.04.1)
  configuration: --prefix=/usr/lib/jellyfin-ffmpeg --target-os=linux --extra-version=Jellyfin --disable-doc --disable-ffplay --disable-static --disable-libxcb --disable-sdl2 --disable-xlib --enable-lto=auto --enable-gpl --enable-version3 --enable-shared --enable-gmp --enable-gnutls --enable-chromaprint --enable-opencl --enable-libdrm --enable-libxml2 --enable-libass --enable-libfreetype --enable-libfribidi --enable-libfontconfig --enable-libharfbuzz --enable-libbluray --enable-libmp3lame --enable-libopus --enable-libtheora --enable-libvorbis --enable-libopenmpt --enable-libdav1d --enable-libsvtav1 --enable-libwebp --enable-libvpx --enable-libx264 --enable-libx265 --enable-libzvbi --enable-libzimg --enable-libfdk-aac --arch=amd64 --enable-libshaderc --enable-libplacebo --enable-vulkan --enable-vaapi --enable-amf --enable-libvpl --enable-ffnvcodec --enable-cuda --enable-cuda-llvm --enable-cuvid --enable-nvdec --enable-nvenc
  libavutil      59. 39.100 / 59. 39.100
  libavcodec     61. 19.101 / 61. 19.101
  libavformat    61.  7.100 / 61.  7.100
  libavdevice    61.  3.100 / 61.  3.100
  libavfilter    10.  4.100 / 10.  4.100
  libswscale      8.  3.100 /  8.  3.100
  libswresample   5.  3.100 /  5.  3.100
  libpostproc    58.  3.100 / 58.  3.100
Input #0, matroska,webm, from 'file:/data/shows/Breaking Bad {tvdb-81189} {imdb-tt0903747}/Season1/S01E02.mkv':
  Metadata:
    ENCODER         : Lavf62.3.100
  Duration: 00:10:02.00, start: 0.000000, bitrate: 0 kb/s
  Stream #0:0: Video: h264 (High), yuv420p(tv, progressive), 128x96 [SAR 1:1 DAR 4:3], 1 fps, 1 tbr, 1k tbn
      Metadata:
        ENCODER         : Lavc62.11.100 libx264
        DURATION        : 00:10:02.000000000
Stream mapping:
  Stream #0:0 -> #0:0 (copy)
[hls @ 0x5d3228afb540] Opening '/config/cache/transcodes/fde0cd066305eb826029ef559f788fc9-1.mp4' for writing
Output #0, hls, to '/config/cache/transcodes/fde0cd066305eb826029ef559f788fc9.m3u8':
  Metadata:
    encoder         : Lavf61.7.100
  Stream #0:0: Video: h264 (High), yuv420p(tv, progressive), 128x96 [SAR 1:1 DAR 4:3], q=2-31, 1 fps, 1 tbr, 16k tbn
Press [q] to stop, [?] for help
[hls @ 0x5d3228afb540] Opening '/config/cache/transcodes/fde0cd066305eb826029ef559f788fc90.mp4' for writing
[hls @ 0x5d3228afb540] Opening '/config/cache/transcodes/fde0cd066305eb826029ef559f788fc91.mp4' for writing
[hls @ 0x5d3228afb540] Opening '/config/cache/transcodes/fde0cd066305eb826029ef559f788fc92.mp4' for writing
[out#0/hls @ 0x5d3228afc740] video:11KiB audio:0KiB subtitle:0KiB other streams:0KiB global headers:0KiB muxing overhead: unknown
frame=  602 fps=0.0 q=-1.0 Lsize=N/A time=00:00:00.00 bitrate=N/A speed=   0x    